<svg xmlns="http://www.w3.org/2000/svg" width="800" height="500"><defs><style type="text/css"><![CDATA[ 
.axis path,
.axis line,
.legend rect {
  fill: none;
  stroke: #ccc;
  stroke-width: 1px;
}

/* hide the zero tick mark */
.y-axis .tick:first-of-type text {
  opacity: 0;
}

/* highlight January tick marks */
.x-axis .tick:not(:nth-of-type(12n+1)) text {
  opacity: 0.5;
}

/* hide every second month tick mark */
.x-axis .tick:nth-of-type(2n) text {
  opacity: 0;
}

.num-fixtures {
  fill: none;
  stroke: #2196f3;
  stroke-width: 2px;
}

.legend rect {
  fill: #fff;
}
 ]]></style></defs><g transform="translate(50, 20)"><g class="axis x-axis" transform="translate(0, 450)" fill="none" font-size="10" font-family="sans-serif" text-anchor="middle"><path class="domain" stroke="currentColor" d="M0.5,0.5H730.5"></path><g class="tick" opacity="1" transform="translate(0.5,0)"><line stroke="currentColor" y2="-450"></line><text fill="currentColor" y="3" dy="0.71em">01/17</text></g><g class="tick" opacity="1" transform="translate(24.884681003906074,0)"><line stroke="currentColor" y2="-450"></line><text fill="currentColor" y="3" dy="0.71em">02/17</text></g><g class="tick" opacity="1" transform="translate(46.90955416872446,0)"><line stroke="currentColor" y2="-450"></line><text fill="currentColor" y="3" dy="0.71em">03/17</text></g><g class="tick" opacity="1" transform="translate(71.26146006375433,0)"><line stroke="currentColor" y2="-450"></line><text fill="currentColor" y="3" dy="0.71em">04/17</text></g><g class="tick" opacity="1" transform="translate(94.85953845463116,0)"><line stroke="currentColor" y2="-450"></line><text fill="currentColor" y="3" dy="0.71em">05/17</text></g><g class="tick" opacity="1" transform="translate(119.24421945853724,0)"><line stroke="currentColor" y2="-450"></line><text fill="currentColor" y="3" dy="0.71em">06/17</text></g><g class="tick" opacity="1" transform="translate(142.8422978494141,0)"><line stroke="currentColor" y2="-450"></line><text fill="currentColor" y="3" dy="0.71em">07/17</text></g><g class="tick" opacity="1" transform="translate(167.22697885332016,0)"><line stroke="currentColor" y2="-450"></line><text fill="currentColor" y="3" dy="0.71em">08/17</text></g><g class="tick" opacity="1" transform="translate(191.61165985722624,0)"><line stroke="currentColor" y2="-450"></line><text fill="currentColor" y="3" dy="0.71em">09/17</text></g><g class="tick" opacity="1" transform="translate(215.20973824810306,0)"><line stroke="currentColor" y2="-450"></line><text fill="currentColor" y="3" dy="0.71em">10/17</text></g><g class="tick" opacity="1" transform="translate(239.62719436088537,0)"><line stroke="currentColor" y2="-450"></line><text fill="currentColor" y="3" dy="0.71em">11/17</text></g><g class="tick" opacity="1" transform="translate(263.2252727517622,0)"><line stroke="currentColor" y2="-450"></line><text fill="currentColor" y="3" dy="0.71em">12/17</text></g><g class="tick" opacity="1" transform="translate(287.6099537556683,0)"><line stroke="currentColor" y2="-450"></line><text fill="currentColor" y="3" dy="0.71em">01/18</text></g><g class="tick" opacity="1" transform="translate(311.99463475957435,0)"><line stroke="currentColor" y2="-450"></line><text fill="currentColor" y="3" dy="0.71em">02/18</text></g><g class="tick" opacity="1" transform="translate(334.01950792439277,0)"><line stroke="currentColor" y2="-450"></line><text fill="currentColor" y="3" dy="0.71em">03/18</text></g><g class="tick" opacity="1" transform="translate(358.3714138194226,0)"><line stroke="currentColor" y2="-450"></line><text fill="currentColor" y="3" dy="0.71em">04/18</text></g><g class="tick" opacity="1" transform="translate(381.96949221029945,0)"><line stroke="currentColor" y2="-450"></line><text fill="currentColor" y="3" dy="0.71em">05/18</text></g><g class="tick" opacity="1" transform="translate(406.3541732142055,0)"><line stroke="currentColor" y2="-450"></line><text fill="currentColor" y="3" dy="0.71em">06/18</text></g><g class="tick" opacity="1" transform="translate(429.9522516050824,0)"><line stroke="currentColor" y2="-450"></line><text fill="currentColor" y="3" dy="0.71em">07/18</text></g><g class="tick" opacity="1" transform="translate(454.33693260898843,0)"><line stroke="currentColor" y2="-450"></line><text fill="currentColor" y="3" dy="0.71em">08/18</text></g><g class="tick" opacity="1" transform="translate(478.72161361289454,0)"><line stroke="currentColor" y2="-450"></line><text fill="currentColor" y="3" dy="0.71em">09/18</text></g><g class="tick" opacity="1" transform="translate(502.31969200377137,0)"><line stroke="currentColor" y2="-450"></line><text fill="currentColor" y="3" dy="0.71em">10/18</text></g><g class="tick" opacity="1" transform="translate(526.7371481165536,0)"><line stroke="currentColor" y2="-450"></line><text fill="currentColor" y="3" dy="0.71em">11/18</text></g><g class="tick" opacity="1" transform="translate(550.3352265074305,0)"><line stroke="currentColor" y2="-450"></line><text fill="currentColor" y="3" dy="0.71em">12/18</text></g><g class="tick" opacity="1" transform="translate(574.7199075113366,0)"><line stroke="currentColor" y2="-450"></line><text fill="currentColor" y="3" dy="0.71em">01/19</text></g><g class="tick" opacity="1" transform="translate(599.1045885152427,0)"><line stroke="currentColor" y2="-450"></line><text fill="currentColor" y="3" dy="0.71em">02/19</text></g><g class="tick" opacity="1" transform="translate(621.1294616800611,0)"><line stroke="currentColor" y2="-450"></line><text fill="currentColor" y="3" dy="0.71em">03/19</text></g><g class="tick" opacity="1" transform="translate(645.481367575091,0)"><line stroke="currentColor" y2="-450"></line><text fill="currentColor" y="3" dy="0.71em">04/19</text></g><g class="tick" opacity="1" transform="translate(669.0794459659678,0)"><line stroke="currentColor" y2="-450"></line><text fill="currentColor" y="3" dy="0.71em">05/19</text></g><g class="tick" opacity="1" transform="translate(693.4641269698739,0)"><line stroke="currentColor" y2="-450"></line><text fill="currentColor" y="3" dy="0.71em">06/19</text></g><g class="tick" opacity="1" transform="translate(717.0622053607507,0)"><line stroke="currentColor" y2="-450"></line><text fill="currentColor" y="3" dy="0.71em">07/19</text></g></g><g class="axis y-axis" fill="none" font-size="10" font-family="sans-serif" text-anchor="end"><path class="domain" stroke="currentColor" d="M0.5,450.5V0.5"></path><g class="tick" opacity="1" transform="translate(0,450.5)"><line stroke="currentColor" x2="730"></line><text fill="currentColor" x="-3" dy="0.32em">0</text></g><g class="tick" opacity="1" transform="translate(0,419.4655172413793)"><line stroke="currentColor" x2="730"></line><text fill="currentColor" x="-3" dy="0.32em">20</text></g><g class="tick" opacity="1" transform="translate(0,388.4310344827586)"><line stroke="currentColor" x2="730"></line><text fill="currentColor" x="-3" dy="0.32em">40</text></g><g class="tick" opacity="1" transform="translate(0,357.3965517241379)"><line stroke="currentColor" x2="730"></line><text fill="currentColor" x="-3" dy="0.32em">60</text></g><g class="tick" opacity="1" transform="translate(0,326.3620689655172)"><line stroke="currentColor" x2="730"></line><text fill="currentColor" x="-3" dy="0.32em">80</text></g><g class="tick" opacity="1" transform="translate(0,295.3275862068965)"><line stroke="currentColor" x2="730"></line><text fill="currentColor" x="-3" dy="0.32em">100</text></g><g class="tick" opacity="1" transform="translate(0,264.2931034482759)"><line stroke="currentColor" x2="730"></line><text fill="currentColor" x="-3" dy="0.32em">120</text></g><g class="tick" opacity="1" transform="translate(0,233.25862068965517)"><line stroke="currentColor" x2="730"></line><text fill="currentColor" x="-3" dy="0.32em">140</text></g><g class="tick" opacity="1" transform="translate(0,202.22413793103448)"><line stroke="currentColor" x2="730"></line><text fill="currentColor" x="-3" dy="0.32em">160</text></g><g class="tick" opacity="1" transform="translate(0,171.18965517241378)"><line stroke="currentColor" x2="730"></line><text fill="currentColor" x="-3" dy="0.32em">180</text></g><g class="tick" opacity="1" transform="translate(0,140.15517241379308)"><line stroke="currentColor" x2="730"></line><text fill="currentColor" x="-3" dy="0.32em">200</text></g><g class="tick" opacity="1" transform="translate(0,109.12068965517244)"><line stroke="currentColor" x2="730"></line><text fill="currentColor" x="-3" dy="0.32em">220</text></g><g class="tick" opacity="1" transform="translate(0,78.08620689655174)"><line stroke="currentColor" x2="730"></line><text fill="currentColor" x="-3" dy="0.32em">240</text></g><g class="tick" opacity="1" transform="translate(0,47.051724137931046)"><line stroke="currentColor" x2="730"></line><text fill="currentColor" x="-3" dy="0.32em">260</text></g><g class="tick" opacity="1" transform="translate(0,16.01724137931035)"><line stroke="currentColor" x2="730"></line><text fill="currentColor" x="-3" dy="0.32em">280</text></g></g><path class="num-fixtures" d="M14.978224756431553,448.44827586206895L14.978224756431553,446.8965517241379L14.978224756431553,445.3448275862069L14.978224756431553,443.7931034482759L14.978224756431553,442.2413793103448L17.33803259551924,440.6896551724138L18.124635208548465,439.13793103448273L42.50931621245454,437.58620689655174L42.50931621245454,436.0344827586207L42.50931621245454,434.48275862068965L42.50931621245454,432.9310344827586L42.50931621245454,431.37931034482756L42.50931621245454,429.82758620689657L42.50931621245454,428.2758620689655L42.50931621245454,426.7241379310345L77.11983118574058,425.17241379310343L84.19925470300363,423.62068965517244L92.85188344632515,422.0689655172414L102.29111480267588,420.51724137931035L106.22412786782203,418.9655172413793L111.73034615902662,417.41379310344826L111.73034615902662,415.8620689655172L112.51694877205585,414.3103448275862L112.51694877205585,412.7586206896552L112.51694877205585,411.2068965517241L112.51694877205585,409.6551724137931L112.51694877205585,408.1034482758621L114.0901539981143,406.55172413793105L147.91406635837112,405L152.63368203654647,403.44827586206895L154.99348987563417,401.8965517241379L154.99348987563417,400.3448275862069L154.99348987563417,398.7931034482759L160.4997081668388,397.2413793103448L166.7925290710726,395.6896551724138L168.36573429713104,394.1379310344828L168.36573429713104,392.58620689655174L169.9389395231895,391.0344827586207L170.72554213621873,389.48275862068965L171.51214474924797,387.9310344827586L171.51214474924797,386.37931034482756L171.51214474924797,384.8275862068965L172.2987473622772,383.2758620689655L172.2987473622772,381.7241379310345L172.2987473622772,380.17241379310343L173.08534997530643,378.62068965517244L178.59156826651102,377.0689655172414L184.88438917074484,375.51724137931035L193.53701791406635,373.9655172413793L193.53701791406635,372.41379310344826L195.89682575315405,370.86206896551727L195.89682575315405,369.3103448275862L196.68342836618328,367.7586206896552L196.68342836618328,366.2068965517241L197.47003097921248,364.65517241379314L199.04323620527097,363.1034482758621L199.04323620527097,361.55172413793105L199.04323620527097,360L205.3360571095048,358.44827586206895L205.3360571095048,356.8965517241379L205.3360571095048,355.34482758620686L223.42791720917702,353.7931034482759L224.21451982220626,352.2413793103448L226.57432766129395,350.6896551724138L236.01355901764467,349.1379310344828L250.9590086652,347.58620689655174L250.9590086652,346.0344827586207L251.74561127822926,344.48275862068965L251.74561127822926,342.9310344827586L254.89202173034613,341.37931034482756L261.9714452476092,339.82758620689657L267.47766353881383,338.2758620689655L267.47766353881383,336.7241379310345L267.47766353881383,335.17241379310343L271.41067660396,333.62068965517244L271.41067660396,332.0689655172414L271.41067660396,330.51724137931035L272.9838818300184,328.9655172413793L278.490100121223,327.41379310344826L281.6365105733399,325.8620689655172L283.99631841242757,324.3103448275862L286.35612625151526,322.7586206896552L287.1427288645445,321.2068965517241L287.1427288645445,319.6551724137931L287.1427288645445,318.1034482758621L290.2891393166614,316.55172413793105L292.6489471557491,315L300.5149732860414,313.44827586206895L305.23458896421675,311.8965517241379L306.021191577246,310.34482758620686L309.95420464239214,308.7931034482758L309.95420464239214,307.2413793103448L309.95420464239214,305.68965517241384L312.31401248147984,304.1379310344828L312.31401248147984,302.58620689655174L312.31401248147984,301.0344827586207L313.100615094509,299.48275862068965L313.100615094509,297.9310344827586L313.8872177075383,296.37931034482756L314.67382032056753,294.8275862068965L315.4604229335967,293.2758620689655L315.4604229335967,291.72413793103453L315.4604229335967,290.1724137931035L317.0336281596552,288.62068965517244L320.9666412248013,287.0689655172414L320.9666412248013,285.51724137931035L320.9666412248013,283.9655172413793L322.5398464508598,282.41379310344826L322.5398464508598,280.86206896551727L324.8996542899475,279.3103448275862L325.6862569029767,277.7586206896552L340.63170655053204,276.2068965517241L344.56471961567814,274.65517241379314L344.56471961567814,273.1034482758621L354.0039509720289,271.55172413793105L354.79055358505815,270L355.5771561980874,268.44827586206895L356.36375881111655,266.8965517241379L356.36375881111655,265.34482758620686L360.29677187626277,263.7931034482759L360.29677187626277,262.2413793103448L364.22978494140887,260.6896551724138L374.45561891078887,259.1379310344828L375.24222152381805,257.58620689655174L401.2001077537826,256.0344827586207L402.7733129798411,254.48275862068965L404.3465182058995,252.93103448275863L404.3465182058995,251.3793103448276L415.3589547883087,249.82758620689654L415.3589547883087,248.27586206896552L415.3589547883087,246.72413793103448L416.14555740133795,245.17241379310343L416.14555740133795,243.6206896551724L417.7187626273964,242.0689655172414L429.5178018228348,240.51724137931035L442.1034436313025,238.9655172413793L443.67664885736093,237.41379310344828L445.2498540834194,235.86206896551724L449.18286714856555,234.3103448275862L449.18286714856555,232.75862068965517L457.04889327885775,231.20689655172416L457.83549589188704,229.6551724137931L460.98190634400396,228.10344827586206L468.8479324742962,226.55172413793105L482.2201768957931,225L486.15318996093924,223.44827586206895L486.9397925739685,221.89655172413794L487.7263951869977,220.3448275862069L488.51299780002694,218.79310344827584L488.51299780002694,217.24137931034483L488.51299780002694,215.68965517241378L490.8728056391146,214.13793103448273L494.8058187042608,212.5862068965517L496.3790239303192,211.0344827586207L497.1656265433484,209.48275862068968L505.8182552866699,207.93103448275863L508.9646657387869,206.3793103448276L510.5378709648453,204.82758620689657L513.6842814169622,203.27586206896552L514.4708840299915,201.72413793103448L519.9771023211961,200.17241379310346L520.7637049342253,198.6206896551724L526.2699232254299,197.06896551724137L526.2699232254299,195.51724137931035L527.0565258384592,193.9655172413793L527.0565258384592,192.41379310344826L527.0565258384592,190.8620689655172L527.0565258384592,189.31034482758616L530.9895389036052,187.75862068965517L531.7761415166345,186.20689655172418L531.7761415166345,184.65517241379314L532.5627441296638,183.1034482758621L534.1359493557221,181.55172413793105L534.1359493557221,180L534.1359493557221,178.44827586206895L534.1359493557221,176.8965517241379L535.7091545817806,175.34482758620692L543.575180712073,173.79310344827587L545.9349885511606,172.24137931034483L546.7215911641898,170.68965517241378L546.7215911641898,169.13793103448273L547.508193777219,167.5862068965517L547.508193777219,166.0344827586207L552.2278094553944,164.48275862068965L555.3742199075114,162.9310344827586L556.9474251335698,161.37931034482762L556.9474251335698,159.82758620689657L557.734027746599,158.27586206896552L557.734027746599,156.72413793103448L558.5206303596282,155.17241379310343L558.5206303596282,153.62068965517244L564.0268486508328,152.0689655172414L575.039285233242,150.51724137931035L575.039285233242,148.9655172413793L575.039285233242,147.41379310344826L575.039285233242,145.8620689655172L575.039285233242,144.31034482758622L575.039285233242,142.75862068965517L575.039285233242,141.20689655172413L575.039285233242,139.65517241379308L577.3990930723297,138.10344827586204L577.3990930723297,136.55172413793105L579.7589009114174,135L584.4785165895928,133.448275862069L585.265119202622,131.89655172413796L585.265119202622,130.34482758620692L586.0517218156513,128.79310344827587L589.9847348807974,127.24137931034483L589.9847348807974,125.68965517241378L602.570376689265,124.13793103448273L602.570376689265,122.58620689655174L602.570376689265,121.0344827586207L604.1435819153235,119.48275862068965L604.1435819153235,117.9310344827586L604.1435819153235,116.37931034482756L604.1435819153235,114.82758620689651L609.6498002065281,113.27586206896547L610.4364028195573,111.72413793103453L612.0096080456158,110.17241379310349L614.3694158847035,108.62068965517244L614.3694158847035,107.0689655172414L619.0890315628789,105.51724137931035L619.0890315628789,103.9655172413793L619.0890315628789,102.41379310344826L621.4488394019664,100.86206896551727L622.2354420149957,99.31034482758622L623.0220446280249,97.75862068965517L623.0220446280249,96.20689655172413L623.0220446280249,94.65517241379308L624.5952498540835,93.10344827586204L624.5952498540835,91.55172413793099L624.5952498540835,90L624.5952498540835,88.44827586206895L624.5952498540835,86.89655172413796L625.3818524671127,85.34482758620692L630.8880707583172,83.79310344827587L630.8880707583172,82.24137931034483L632.4612759843757,80.68965517241378L632.4612759843757,79.13793103448279L634.8210838234634,77.58620689655174L637.1808916625511,76.0344827586207L642.6871099537557,74.48275862068965L642.6871099537557,72.9310344827586L642.6871099537557,71.37931034482756L645.8335204058726,69.82758620689657L645.8335204058726,68.27586206896552L645.8335204058726,66.72413793103448L648.1933282449603,65.17241379310343L648.9799308579895,63.620689655172384L649.7665334710188,62.068965517241395L649.7665334710188,60.51724137931035L649.7665334710188,58.9655172413793L649.7665334710188,57.41379310344831L649.7665334710188,55.86206896551727L649.7665334710188,54.31034482758622L649.7665334710188,52.758620689655174L651.3397386970771,51.20689655172413L656.0593543752525,49.65517241379308L656.0593543752525,48.10344827586209L656.0593543752525,46.551724137931046L656.0593543752525,45L656.0593543752525,43.448275862068954L663.1387778925156,41.89655172413791L670.2182014097787,40.34482758620686L671.0048040228079,38.793103448275815L671.0048040228079,37.241379310344826L674.1512144749248,35.689655172413836L674.1512144749248,34.13793103448279L678.084227540071,32.586206896551744L678.8708301531002,31.034482758620697L679.6574327661293,29.48275862068965L681.2306379921879,27.931034482758605L681.2306379921879,26.379310344827616L684.3770484443047,24.82758620689657L691.4564719615678,23.275862068965523L691.4564719615678,21.724137931034477L691.4564719615678,20.17241379310343L694.6028824136847,18.620689655172384L698.5358954788309,17.068965517241338L698.5358954788309,15.517241379310349L698.5358954788309,13.965517241379303L705.615318996094,12.413793103448313L710.3349346742693,10.862068965517267L722.9205764827369,9.31034482758622L724.4937817087954,7.758620689655174L724.4937817087954,6.206896551724128L724.4937817087954,4.655172413793139L726.0669869348538,3.1034482758620925L730,1.5517241379310462L730,0"></path><g class="legend" transform="translate(20, 20)"><rect x="-10" y="-14" width="240" height="45"></rect><path class="num-fixtures" d="M 0,0 H 20"></path><text x="30" y="0" style="font-size: 14px;" alignment-baseline="middle">Number of fixtures in OFL: 290</text><text x="30" y="20" style="font-size: 12px;" alignment-baseline="middle">Last updated: 2019-07-19</text></g></g></svg>