<svg xmlns="http://www.w3.org/2000/svg" width="800" height="500"><defs><style type="text/css"><![CDATA[ 
.axis path,
.axis line,
.legend rect {
  fill: none;
  stroke: #ccc;
  stroke-width: 1px;
}

/* hide the zero tick mark */
.y-axis .tick:first-of-type text {
  opacity: 0;
}

/* highlight January tick marks */
.x-axis .tick:not(:nth-of-type(12n+1)) text {
  opacity: 0.5;
}

/* hide every second month tick mark */
.x-axis .tick:nth-of-type(2n) text {
  opacity: 0;
}

.num-fixtures {
  fill: none;
  stroke: #2196f3;
  stroke-width: 2px;
}

.legend rect {
  fill: #fff;
}
 ]]></style></defs><g transform="translate(50, 20)"><g class="axis x-axis" transform="translate(0, 450)" fill="none" font-size="10" font-family="sans-serif" text-anchor="middle"><path class="domain" stroke="currentColor" d="M0.5,0.5H730.5"></path><g class="tick" opacity="1" transform="translate(0.5,0)"><line stroke="currentColor" y2="-450"></line><text fill="currentColor" y="3" dy="0.71em">01/17</text></g><g class="tick" opacity="1" transform="translate(21.58958179629558,0)"><line stroke="currentColor" y2="-450"></line><text fill="currentColor" y="3" dy="0.71em">02/17</text></g><g class="tick" opacity="1" transform="translate(40.63823632198191,0)"><line stroke="currentColor" y2="-450"></line><text fill="currentColor" y="3" dy="0.71em">03/17</text></g><g class="tick" opacity="1" transform="translate(61.699471906185686,0)"><line stroke="currentColor" y2="-450"></line><text fill="currentColor" y="3" dy="0.71em">04/17</text></g><g class="tick" opacity="1" transform="translate(82.10874461227817,0)"><line stroke="currentColor" y2="-450"></line><text fill="currentColor" y="3" dy="0.71em">05/17</text></g><g class="tick" opacity="1" transform="translate(103.19832640857376,0)"><line stroke="currentColor" y2="-450"></line><text fill="currentColor" y="3" dy="0.71em">06/17</text></g><g class="tick" opacity="1" transform="translate(123.60759911466624,0)"><line stroke="currentColor" y2="-450"></line><text fill="currentColor" y="3" dy="0.71em">07/17</text></g><g class="tick" opacity="1" transform="translate(144.69718091096183,0)"><line stroke="currentColor" y2="-450"></line><text fill="currentColor" y="3" dy="0.71em">08/17</text></g><g class="tick" opacity="1" transform="translate(165.7867627072574,0)"><line stroke="currentColor" y2="-450"></line><text fill="currentColor" y="3" dy="0.71em">09/17</text></g><g class="tick" opacity="1" transform="translate(186.19603541334988,0)"><line stroke="currentColor" y2="-450"></line><text fill="currentColor" y="3" dy="0.71em">10/17</text></g><g class="tick" opacity="1" transform="translate(207.31396342173727,0)"><line stroke="currentColor" y2="-450"></line><text fill="currentColor" y="3" dy="0.71em">11/17</text></g><g class="tick" opacity="1" transform="translate(227.72323612782975,0)"><line stroke="currentColor" y2="-450"></line><text fill="currentColor" y="3" dy="0.71em">12/17</text></g><g class="tick" opacity="1" transform="translate(248.81281792412537,0)"><line stroke="currentColor" y2="-450"></line><text fill="currentColor" y="3" dy="0.71em">01/18</text></g><g class="tick" opacity="1" transform="translate(269.90239972042093,0)"><line stroke="currentColor" y2="-450"></line><text fill="currentColor" y="3" dy="0.71em">02/18</text></g><g class="tick" opacity="1" transform="translate(288.9510542461072,0)"><line stroke="currentColor" y2="-450"></line><text fill="currentColor" y="3" dy="0.71em">03/18</text></g><g class="tick" opacity="1" transform="translate(310.01228983031103,0)"><line stroke="currentColor" y2="-450"></line><text fill="currentColor" y="3" dy="0.71em">04/18</text></g><g class="tick" opacity="1" transform="translate(330.42156253640354,0)"><line stroke="currentColor" y2="-450"></line><text fill="currentColor" y="3" dy="0.71em">05/18</text></g><g class="tick" opacity="1" transform="translate(351.51114433269913,0)"><line stroke="currentColor" y2="-450"></line><text fill="currentColor" y="3" dy="0.71em">06/18</text></g><g class="tick" opacity="1" transform="translate(371.9204170387916,0)"><line stroke="currentColor" y2="-450"></line><text fill="currentColor" y="3" dy="0.71em">07/18</text></g><g class="tick" opacity="1" transform="translate(393.0099988350872,0)"><line stroke="currentColor" y2="-450"></line><text fill="currentColor" y="3" dy="0.71em">08/18</text></g><g class="tick" opacity="1" transform="translate(414.0995806313827,0)"><line stroke="currentColor" y2="-450"></line><text fill="currentColor" y="3" dy="0.71em">09/18</text></g><g class="tick" opacity="1" transform="translate(434.5088533374753,0)"><line stroke="currentColor" y2="-450"></line><text fill="currentColor" y="3" dy="0.71em">10/18</text></g><g class="tick" opacity="1" transform="translate(455.6267813458626,0)"><line stroke="currentColor" y2="-450"></line><text fill="currentColor" y="3" dy="0.71em">11/18</text></g><g class="tick" opacity="1" transform="translate(476.0360540519551,0)"><line stroke="currentColor" y2="-450"></line><text fill="currentColor" y="3" dy="0.71em">12/18</text></g><g class="tick" opacity="1" transform="translate(497.12563584825074,0)"><line stroke="currentColor" y2="-450"></line><text fill="currentColor" y="3" dy="0.71em">01/19</text></g><g class="tick" opacity="1" transform="translate(518.2152176445462,0)"><line stroke="currentColor" y2="-450"></line><text fill="currentColor" y="3" dy="0.71em">02/19</text></g><g class="tick" opacity="1" transform="translate(537.2638721702326,0)"><line stroke="currentColor" y2="-450"></line><text fill="currentColor" y="3" dy="0.71em">03/19</text></g><g class="tick" opacity="1" transform="translate(558.3251077544364,0)"><line stroke="currentColor" y2="-450"></line><text fill="currentColor" y="3" dy="0.71em">04/19</text></g><g class="tick" opacity="1" transform="translate(578.7343804605289,0)"><line stroke="currentColor" y2="-450"></line><text fill="currentColor" y="3" dy="0.71em">05/19</text></g><g class="tick" opacity="1" transform="translate(599.8239622568244,0)"><line stroke="currentColor" y2="-450"></line><text fill="currentColor" y="3" dy="0.71em">06/19</text></g><g class="tick" opacity="1" transform="translate(620.2332349629169,0)"><line stroke="currentColor" y2="-450"></line><text fill="currentColor" y="3" dy="0.71em">07/19</text></g><g class="tick" opacity="1" transform="translate(641.3228167592125,0)"><line stroke="currentColor" y2="-450"></line><text fill="currentColor" y="3" dy="0.71em">08/19</text></g><g class="tick" opacity="1" transform="translate(662.4123985555082,0)"><line stroke="currentColor" y2="-450"></line><text fill="currentColor" y="3" dy="0.71em">09/19</text></g><g class="tick" opacity="1" transform="translate(682.8216712616006,0)"><line stroke="currentColor" y2="-450"></line><text fill="currentColor" y="3" dy="0.71em">10/19</text></g><g class="tick" opacity="1" transform="translate(703.939599269988,0)"><line stroke="currentColor" y2="-450"></line><text fill="currentColor" y="3" dy="0.71em">11/19</text></g><g class="tick" opacity="1" transform="translate(724.3488719760804,0)"><line stroke="currentColor" y2="-450"></line><text fill="currentColor" y="3" dy="0.71em">12/19</text></g></g><g class="axis y-axis" fill="none" font-size="10" font-family="sans-serif" text-anchor="end"><path class="domain" stroke="currentColor" d="M0.5,450.5V0.5"></path><g class="tick" opacity="1" transform="translate(0,450.5)"><line stroke="currentColor" x2="730"></line><text fill="currentColor" x="-3" dy="0.32em">0</text></g><g class="tick" opacity="1" transform="translate(0,388.85616438356163)"><line stroke="currentColor" x2="730"></line><text fill="currentColor" x="-3" dy="0.32em">50</text></g><g class="tick" opacity="1" transform="translate(0,327.21232876712327)"><line stroke="currentColor" x2="730"></line><text fill="currentColor" x="-3" dy="0.32em">100</text></g><g class="tick" opacity="1" transform="translate(0,265.56849315068496)"><line stroke="currentColor" x2="730"></line><text fill="currentColor" x="-3" dy="0.32em">150</text></g><g class="tick" opacity="1" transform="translate(0,203.9246575342466)"><line stroke="currentColor" x2="730"></line><text fill="currentColor" x="-3" dy="0.32em">200</text></g><g class="tick" opacity="1" transform="translate(0,142.28082191780823)"><line stroke="currentColor" x2="730"></line><text fill="currentColor" x="-3" dy="0.32em">250</text></g><g class="tick" opacity="1" transform="translate(0,80.63698630136989)"><line stroke="currentColor" x2="730"></line><text fill="currentColor" x="-3" dy="0.32em">300</text></g><g class="tick" opacity="1" transform="translate(0,18.993150684931532)"><line stroke="currentColor" x2="730"></line><text fill="currentColor" x="-3" dy="0.32em">350</text></g></g><path class="num-fixtures" d="M12.954218925950375,448.7671232876712L12.954218925950375,447.5342465753425L12.954218925950375,446.3013698630137L12.954218925950375,445.06849315068496L12.954218925950375,443.8356164383561L14.995146196559624,442.6027397260274L15.675455286762707,441.3698630136986L36.76503708305828,440.13698630136986L36.76503708305828,438.90410958904107L36.76503708305828,437.67123287671234L36.76503708305828,436.43835616438355L36.76503708305828,435.2054794520548L36.76503708305828,433.972602739726L36.76503708305828,432.7397260273973L36.76503708305828,431.5068493150685L66.69863705199394,430.2739726027397L72.82141886382169,429.04109589041093L80.3048188560556,427.8082191780822L88.4685279384926,426.5753424657534L91.87007338950802,425.3424657534247L96.6322370209296,424.1095890410959L96.6322370209296,422.87671232876716L97.31254611113268,421.64383561643837L97.31254611113268,420.41095890410963L97.31254611113268,419.1780821917808L97.31254611113268,417.94520547945206L97.31254611113268,416.71232876712327L98.67316429153885,415.47945205479454L127.92645517027142,414.24657534246575L132.00830971148991,413.013698630137L134.0492369820992,411.7808219178082L134.0492369820992,410.54794520547944L134.0492369820992,409.3150684931507L138.81140061352076,408.0821917808219L144.2538733351454,406.8493150684932L145.61449151555158,405.6164383561644L145.61449151555158,404.3835616438356L146.97510969595774,403.1506849315068L147.65541878616085,401.9178082191781L148.33572787636393,400.6849315068493L148.33572787636393,399.45205479452056L148.33572787636393,398.2191780821918L149.016036966567,396.98630136986304L149.016036966567,395.75342465753425L149.016036966567,394.52054794520546L149.6963460567701,393.2876712328767L154.45850968819167,392.05479452054794L159.90098240981632,390.82191780821915L167.38438240205025,389.5890410958904L167.38438240205025,388.35616438356163L169.4253096726595,387.1232876712329L169.4253096726595,385.8904109589041L170.10561876286258,384.6575342465754L170.10561876286258,383.42465753424653L170.78592785306566,382.19178082191786L172.14654603347182,380.958904109589L172.14654603347182,379.7260273972603L172.14654603347182,378.4931506849315L177.58901875509648,377.26027397260276L177.58901875509648,376.027397260274L177.58901875509648,374.79452054794524L193.2361278297674,373.56164383561645L193.9164369199705,372.32876712328766L195.95736419057977,371.09589041095893L204.12107327301672,369.86301369863014L217.0469459868753,368.63013698630135L217.0469459868753,367.3972602739726L217.72725507707838,366.16438356164383L217.72725507707838,364.93150684931504L220.44849143789074,363.6986301369863L226.57127324971847,362.4657534246575L231.33343688114005,361.2328767123288L231.33343688114005,360L231.33343688114005,358.7671232876712L234.73498233215548,357.5342465753425L234.73498233215548,356.3013698630137L234.73498233215548,355.0684931506849L236.09560051256165,353.83561643835617L240.85776414398322,352.6027397260274L243.57900050479557,351.36986301369865L245.6199277754048,350.13698630136986L247.66085504601406,348.9041095890411L248.34116413621715,347.6712328767123L248.34116413621715,346.4383561643836L248.34116413621715,345.20547945205476L251.06240049702947,343.972602739726L253.10332776763875,342.73972602739724L259.90641866966956,341.5068493150685L263.98827321088805,340.2739726027397L264.66858230109113,339.041095890411L268.07012775210654,337.8082191780822L268.07012775210654,336.5753424657534L268.07012775210654,335.3424657534247L270.1110550227158,334.1095890410959L270.1110550227158,332.87671232876716L270.1110550227158,331.64383561643837L270.79136411291887,330.4109589041096L270.79136411291887,329.17808219178085L271.471673203122,327.94520547945206L272.15198229332503,326.71232876712327L272.8322913835281,325.47945205479454L272.8322913835281,324.24657534246575L272.8322913835281,323.01369863013696L274.1929095639343,321.7808219178082L277.59445501494974,320.54794520547944L277.59445501494974,319.3150684931507L277.59445501494974,318.0821917808219L278.95507319535585,316.8493150684931L278.95507319535585,315.6164383561644L280.99600046596515,314.3835616438356L281.67630955616823,313.1506849315069L294.6021822700268,311.917808219178L298.0037277210422,310.68493150684935L298.0037277210422,309.4520547945205L306.16743680347923,308.21917808219183L306.84774589368226,306.986301369863L307.52805498388534,305.75342465753425L308.2083640740884,304.52054794520546L308.2083640740884,303.28767123287673L311.6099095251039,302.05479452054794L311.6099095251039,300.82191780821915L315.0114549761193,299.5890410958904L323.85547314875936,298.35616438356163L324.53578223896244,297.1232876712329L346.9859822156642,295.8904109589041L348.34660039607036,294.6575342465753L349.7072185764765,293.4246575342466L349.7072185764765,292.1917808219178L359.23154583931966,290.95890410958907L359.23154583931966,289.7260273972603L359.23154583931966,288.4931506849315L359.91185492952275,287.2602739726027L359.91185492952275,286.027397260274L361.27247310992897,284.7945205479452L371.4771094629752,283.56164383561645L382.3620549062245,282.32876712328766L383.72267308663066,281.0958904109589L385.0832912670368,279.86301369863014L388.4848367180523,278.63013698630135L388.4848367180523,277.3972602739726L395.28792762008305,276.1643835616438L395.9682367102862,274.9315068493151L398.6894730710985,273.69863013698625L405.4925639731294,272.4657534246576L417.0578185065818,271.23287671232873L420.45936395759713,270L421.1396730478002,268.7671232876712L421.8199821380033,267.5342465753425L422.5002912282064,266.3013698630137L422.5002912282064,265.06849315068496L422.5002912282064,263.83561643835617L424.5412184988157,262.6027397260274L427.9427639498311,261.36986301369865L429.30338213023725,260.13698630136986L429.98369122044033,258.9041095890411L437.46709121267423,257.67123287671234L440.18832757348656,256.43835616438355L441.5489457538927,255.2054794520548L444.2701821147051,253.97260273972603L444.9504912049082,252.73972602739727L449.7126548363297,251.50684931506845L450.3929639265328,250.27397260273975L455.1551275579544,249.04109589041093L455.1551275579544,247.80821917808223L455.8354366481575,246.5753424657534L455.8354366481575,245.34246575342465L455.8354366481575,244.1095890410959L455.8354366481575,242.87671232876713L459.2369820991729,241.64383561643837L459.917291189376,240.4109589041096L459.917291189376,239.17808219178085L460.59760027957907,237.94520547945203L461.9582184599853,236.71232876712332L461.9582184599853,235.4794520547945L461.9582184599853,234.2465753424658L461.9582184599853,233.013698630137L463.31883664039145,231.78082191780823L470.1219275424222,230.54794520547946L472.1628548130315,229.3150684931507L472.8431639032346,228.08219178082194L472.8431639032346,226.84931506849313L473.5234729934377,225.6164383561644L473.5234729934377,224.3835616438356L477.6053275346561,223.15068493150685L480.32656389546844,221.91780821917806L481.68718207587466,220.6849315068493L481.68718207587466,219.45205479452054L482.36749116607774,218.21917808219177L482.36749116607774,216.986301369863L483.0478002562808,215.75342465753425L483.0478002562808,214.5205479452055L487.8099638877024,213.28767123287673L497.33429115054554,212.05479452054792L497.33429115054554,210.82191780821915L497.33429115054554,209.5890410958904L497.33429115054554,208.35616438356163L497.33429115054554,207.12328767123287L497.33429115054554,205.8904109589041L497.33429115054554,204.65753424657535L497.33429115054554,203.4246575342466L499.37521842115484,202.19178082191783L499.37521842115484,200.95890410958907L501.4161456917641,199.72602739726025L505.4980002329826,198.4931506849315L506.1783093231856,197.26027397260273L506.1783093231856,196.02739726027397L506.8586184133887,194.7945205479452L510.26016386440415,193.56164383561645L510.26016386440415,192.3287671232877L521.1451093076535,191.09589041095893L521.1451093076535,189.86301369863017L521.1451093076535,188.63013698630138L522.5057274880596,187.3972602739726L522.5057274880596,186.16438356164383L522.5057274880596,184.93150684931507L522.5057274880596,183.6986301369863L527.2678911194812,182.46575342465752L527.9482002096844,181.23287671232876L529.3088183900906,180L531.3497456606997,178.76712328767124L531.3497456606997,177.53424657534248L535.4316002019182,176.30136986301366L535.4316002019182,175.0684931506849L535.4316002019182,173.83561643835614L537.4725274725275,172.60273972602738L538.1528365627306,171.36986301369862L538.8331456529337,170.13698630136986L538.8331456529337,168.9041095890411L538.8331456529337,167.67123287671234L540.1937638333399,166.43835616438358L540.1937638333399,165.20547945205482L540.1937638333399,163.972602739726L540.1937638333399,162.73972602739724L540.1937638333399,161.50684931506848L540.8740729235429,160.27397260273972L545.6362365549644,159.04109589041096L545.6362365549644,157.8082191780822L546.9968547353707,156.57534246575344L546.9968547353707,155.34246575342468L549.0377820059799,154.10958904109592L551.0787092765892,152.87671232876716L555.8408729080107,151.64383561643834L555.8408729080107,150.41095890410958L555.8408729080107,149.17808219178082L558.5621092688231,147.94520547945206L558.5621092688231,146.7123287671233L558.5621092688231,145.47945205479454L560.6030365394323,144.24657534246575L561.2833456296354,143.013698630137L561.9636547198385,141.78082191780823L561.9636547198385,140.54794520547946L561.9636547198385,139.31506849315068L561.9636547198385,138.0821917808219L561.9636547198385,136.84931506849313L561.9636547198385,135.61643835616437L561.9636547198385,134.3835616438356L563.3242729002446,133.15068493150685L567.4061274414631,131.91780821917808L567.4061274414631,130.68493150684932L567.4061274414631,129.45205479452056L567.4061274414631,128.2191780821918L567.4061274414631,126.98630136986299L573.5289092532909,125.75342465753423L579.6516910651186,124.52054794520546L580.3320001553217,123.2876712328767L580.3320001553217,122.05479452054794L583.053236516134,120.82191780821918L583.053236516134,119.58904109589042L586.4547819671495,118.35616438356166L587.1350910573526,117.1232876712329L587.8154001475556,115.89041095890413L589.1760183279617,114.65753424657532L589.1760183279617,113.42465753424656L591.8972546887741,112.1917808219178L598.0200365006019,110.95890410958903L598.0200365006019,109.72602739726027L598.0200365006019,108.4931506849315L600.7412728614141,107.26027397260275L604.1428183124297,106.02739726027399L604.1428183124297,104.79452054794523L604.1428183124297,103.56164383561647L610.2656001242574,102.32876712328765L614.3474546654759,101.09589041095889L625.2324001087252,99.86301369863013L626.5930182891314,98.63013698630137L626.5930182891314,97.3972602739726L626.5930182891314,96.16438356164385L627.9536364695375,94.93150684931508L631.355181920553,93.69863013698631L631.355181920553,92.46575342465755L632.7158001009591,91.23287671232879L634.0764182813652,89.99999999999999L634.0764182813652,88.76712328767121L634.0764182813652,87.53424657534245L634.0764182813652,86.30136986301369L634.0764182813652,85.06849315068493L634.0764182813652,83.83561643835617L634.0764182813652,82.60273972602741L634.0764182813652,81.36986301369865L634.0764182813652,80.13698630136989L634.0764182813652,78.90410958904107L634.0764182813652,77.67123287671231L635.4370364617714,76.43835616438355L635.4370364617714,75.20547945205479L636.7976546421776,73.97260273972603L636.7976546421776,72.73972602739727L638.8385819127868,71.5068493150685L640.199200093193,70.27397260273973L640.199200093193,69.04109589041097L640.199200093193,67.80821917808221L645.6416728148176,66.5753424657534L654.4856909874578,65.34246575342463L654.4856909874578,64.10958904109587L654.4856909874578,62.87671232876711L654.4856909874578,61.64383561643835L654.4856909874578,60.41095890410959L654.4856909874578,59.17808219178083L655.1660000776609,57.94520547945206L655.1660000776609,56.7123287671233L657.8872364384731,55.47945205479454L657.8872364384731,54.24657534246573L657.8872364384731,53.01369863013697L657.8872364384731,51.780821917808204L657.8872364384731,50.547945205479444L657.8872364384731,49.31506849315068L667.4115637013164,48.08219178082192L668.0918727915194,46.849315068493155L668.0918727915194,45.616438356164394L675.5752727837533,44.383561643835634L675.5752727837533,43.15068493150687L677.6162000543626,41.91780821917806L682.3783636857842,40.684931506849296L683.0586727759872,39.452054794520535L683.0586727759872,38.219178082191775L683.0586727759872,36.986301369863014L685.7799091367996,35.75342465753425L685.7799091367996,34.520547945205486L685.7799091367996,33.287671232876725L687.1405273172057,32.054794520547965L690.5420727682211,30.8219178082192L691.9026909486273,29.58904109589039L692.5830000388304,28.356164383561627L695.9845454898458,27.123287671232866L695.9845454898458,25.890410958904102L699.3860909408613,24.65753424657534L702.1073273016735,23.424657534246577L702.1073273016735,22.191780821917817L702.1073273016735,20.958904109589056L702.1073273016735,19.726027397260292L702.1073273016735,18.493150684931532L702.1073273016735,17.260273972602718L702.7876363918766,16.027397260273958L702.7876363918766,14.794520547945195L703.4679454820797,13.561643835616433L703.4679454820797,12.32876712328767L703.4679454820797,11.095890410958908L703.4679454820797,9.863013698630146L706.189181842892,8.630136986301384L706.8694909330952,7.3972602739726225L717.0741272861414,6.16438356164386L721.1559818273599,4.931506849315048L721.1559818273599,3.698630136986286L721.1559818273599,2.465753424657524L722.5166000077661,1.232876712328762L730,0"></path><g class="legend" transform="translate(20, 20)"><rect x="-10" y="-14" width="240" height="45"></rect><path class="num-fixtures" d="M 0,0 H 20"></path><text x="30" y="0" style="font-size: 14px;" alignment-baseline="middle">Number of fixtures in OFL: 365</text><text x="30" y="20" style="font-size: 12px;" alignment-baseline="middle">Last updated: 2019-12-12</text></g></g></svg>